/* XPM */
static char *_a8420dd113a449cce80a509f00dd6bbAW0NHqV7XGh1CpxG[] = {
/* columns rows colors chars-per-pixel */
"64 64 14 1 ",
"  c None",
". c black",
"X c #7A4D03",
"o c #565656",
"O c #810808",
"+ c #AB0B0B",
"@ c #CC2828",
"# c #A77023",
"$ c #B47926",
"% c #349F00",
"& c #D29033",
"* c #E0AC69",
"= c #8B00EC",
"- c #AFAFAF",
/* pixels */
"                                                                ",
"                                                                ",
"                                                                ",
"                                                                ",
"                                                                ",
"                                                                ",
"                                                                ",
"                                                                ",
"                                                                ",
"                                                                ",
"                                                                ",
"                                                                ",
"                              ..                                ",
"                              ..                                ",
"                        ..  ..                                  ",
"                        ..  ..                                  ",
"                          ....                                  ",
"                          ....                                  ",
"                      ..............                            ",
"                      ..............                            ",
"                    ........**..........                        ",
"                    ........**..........                        ",
"                  ........******&&........                      ",
"                  ........******&&........                      ",
"                  ..........******$$....                        ",
"                  ..........******$$....                        ",
"                ....**..%%**********%%##                        ",
"                ....**..%%**********%%##                        ",
"                    ****%%**********%%**                        ",
"                    ****%%**********%%**                        ",
"                    ..****************++    oooo--              ",
"                    ..****************++    oooo--              ",
"                        ++++++**++++++      XXoo--              ",
"                        ++++++**++++++      XXoo--              ",
"                        OO++oo--oo--oo**  XX  oo--              ",
"                        OO++oo--oo--oo**  XX  oo--              ",
"                      OO++++--@@--oo@@**XX                      ",
"                      OO++++--@@--oo@@**XX                      ",
"                      OO++++@@==@@                              ",
"                      OO++++@@==@@                              ",
"                      OOOO++==oo==                              ",
"                      OOOO++==oo==                              ",
"                      OOOOOO++....++                            ",
"                      OOOOOO++....++                            ",
"                            ......                              ",
"                            ......                              ",
"                          ......                                ",
"                          ......                                ",
"                          XXXXXXXX                              ",
"                          XXXXXXXX                              ",
"                                                                ",
"                                                                ",
"                                                                ",
"                                                                ",
"                                                                ",
"                                                                ",
"                                                                ",
"                                                                ",
"                                                                ",
"                                                                ",
"                                                                ",
"                                                                ",
"                                                                ",
"                                                                "
};
