/* XPM */
static char *_9ea5115f04e47f3f2d9be5ab2ee23b2mBj8KrwsxIC3IEyJ[] = {
/* columns rows colors chars-per-pixel */
"64 64 7 1 ",
"  c #720101",
". c #017209",
"X c #3C0445",
"o c #670778",
"O c #565656",
"+ c #740F85",
"@ c #8B08A1",
/* pixels */
"OOOOOOOOOOOOOOOOOOOOOOOOOOOOOOOOOOOOOOOOOOOOOOOOOOOOOOOOOOOOOOOO",
"OOOOOOOOOOOOOOOOOOOOOOOOOOOOOOOOOOOOOOOOOOOOOOOOOOOOOOOOOOOOOOOO",
"OOOOOOOOOOOOOOOOOOOOOOOOOOOOOOOOOOOOOOOOOOOOOOOOOOOOOOOOOOOOOOOO",
"OOOOOOOOOOOOOOOOOOOOOOOOOOOOOOOOOOOOOOOOOOOOOOOOOOOOOOOOOOOOOOOO",
"OOOOOOOOOOOOOOOOOOOOOOOOOOOOOOOOOOOOOOOOOOOOOOOOOOOOOOOOOOOOOOOO",
"OOOOOOOOOOOOOOOOOOOOOOOOOOOOOOOOOOOOOOOOOOOOOOOOOOOOOOOOOOOOOOOO",
"OOOOOOOOOOOOOOOOOOOOOOOOOOOOOOOOOOOOOOOOOOOOOOOOOOOOOOOOOOOOOOOO",
"OOOOOOOOOOOOOOOOOOOOOOOOOOXXOOOOOOOOOOOOOOOOOOOOOOOOOOOOOOOOOOOO",
"OOOOOOOOOOOOOOOOOOOOOOOOOOXOOOOOOOOOOOOOOOOOOOOOOOOOOOOOOOOOOOOO",
"OOOOOOOOOOOOOOOOOOOOOOOOOXXOOOOOOOOOOOOOOOOOOOOOOOOOOOOOOOOOOOOO",
"OOOOOOOOOOOOOOOOOOOOOOOOXOOOOOOOOOOOOOOOOOOOOOOOOOOOOOOOOOOOOOOO",
"OOOOOOOOOOOOOOOOOOOOOOOOXOOOOOOOOOOOOOOOOOOOOXXOOOOOOOOOOOOOOOOO",
"OOOOOOOOOOOOOOOOOOOOOOOXXOXXXXXOOOOOOOOOOXXXXXOOOOOOOOOOOOOOOOOO",
"OOOOOOOOOOOOOOOOOOOOOOOXOOXOOOXXXOOOXXXXXXXOOOOOOOOOOOOOOOOOOOOO",
"OOOOOOOOOOOOOOOOOXOOOOOXOOXOOOOOXXXXOOOOOOOXXOOOOOOOOOOOOOOOOOOO",
"OOOOOOOOOOOOOOOOOXOOXOOXOOXOXXXXXXXXXXOOOOOOOXXOOOOOOOOOOOOOOOOO",
"OOOOOOOOOOOOOOOOXOOXXOOXOXXXX.XXXXXXXXXXXOOOOOXXOOOOOOOOOOOOOOOO",
"OOOOOOXOOOOOOOOXXOOXOOOXXXXXXXXXXXXXXXX.XXXOOOOOOOOOOOOOOOOOOOOO",
"OOOOOOXXOOOOOOXXOOOXOOXXXXXXXXXXXXXXXXXXXXXXOOOOOOOOOOOOOOOOOOOO",
"OOOOOOOXXOOOOOXOOOOXOXXXXXXXXXXXXXXX XXXXXXXXXXXXOOOOOOOOOOOOOOO",
"OOOOOOOOXXOOOOXXOOXXXXXXXXXXXXXXXXXXXXXXXXXXXXOOXXXXOOOOOOOOOOOO",
"OOOOOOOOOXXOOOOXOOXXXXXXXXXXXXXoXXXXXXXXXoXXXXXOOOOXOOOOOOOXOOOO",
"OOOOOOOOOOXXOOOXOOXXXX@XoXXXX.XXXXXX@XXXXXXXXXXXOOOXXOOOOOXXOOOO",
"OOOOOOOOOOOXOXOXXXXXXXXXXXXXXXXXXXXXXXXXXXXXXXXXXOOOXOOOOOXOOOOO",
"OOOOOOOOOOOXOOXOXXXXXXXXX XXXXXXXXXXXXXXXXXXXXXXXOOOXXOXXXXOOOOO",
"OOOOOXOOOOOOXOXOXXXXXXXXXXXXXXXXXXXXXXXXXXXXXXXXXXXXXXXOOOOOOOOO",
"OOOOOXOOOOOOXOOXXXXXXXXXXXXXXXXXXXXXXXXXXXX.XXXXXXOOOXOXXOOOOOOO",
"OOOOOOXOOOOOXOOXXXXXXXXXXXXXXXXXXXXXXXXXXXXXXoXXXXOOOXOOXXOOOOOO",
"OOOOOOXOOOOOXOOXXXXXXXXXXXXXX+XXXXXXXXXXXXXXXXXXXXXOOXXOOOXOOOOO",
"OOOOOOXOOOOOXOOXXXXXXXXXXXXXXXXXXXXXXXXXXXXXXXXXXXXOOOXOOOOXOOOO",
"OOOOOOOXOOOOXOOXXXXX@X.XXXXXXXX.XXXXoXXXXXX XXXXXXXOOOOXOOOXOOOO",
"OOOOOOOXXOOOXOOXXXXXXXXXXXX@XXXXXXXXXXXXXXXXXXXXooXOOOOXXOOOXOOO",
"OOOOOOOOOXXXXOOXXXXXXXXXXXXXX XXXXXXXXoXXXXXXXXXXoXOOOOOOOOOOOOO",
"OOOOOOOOOXXOOOOXXXXXXXXXXXXXXXXXXXXXXXo@XXXXXXXXXXXOOOOOOOOOOOOO",
"OOOOOOOOOXOXXXOXXXXXXXX+XXXXXXXXXXXXXoXXXXXXXXXXXXXOOOOOOOOOOOOO",
"OOOOOOOOOXOOOOXXXXXXXXXXXXXXXXXXX.XXXoXXXXXXXXXXXXXOOOOOOOOOOOOO",
"OOOOOOOOOXXOOOOXXXXXXXXXXXXXXXXXXXXXXXXXXXXXXXXXXXOXOOOOOOOOOOOO",
"OOOOOOOOOOXOOOOOXXXXXXXXXX XXXXXXXXXXXXXXXX.XXXXXXOXOOOOOOOOOOOO",
"OOOOOOOOOOOXXOOOXXXXX.XXo XXXXXXXXXXXXXXXXXXXXXXXXOOXOOOOOOOOOOO",
"OOOOOOOOOOOOOXXXXXXXX.XXoXoXXXXXXXXXXXXXXXXXXXXXXOOOXXOOOOOOOOOO",
"OOOOOOOOOOOOOOOOOXXXXXXXXXXXXXXXXXXXXXXXXXXXXXXXXOOOOXOOOOOOOOOO",
"OOOOOOOOOOOOOOOOOOXXXXXXXXXXXXXX@XXXXXXXXXXX XXXXOOOOXOOOOOOOOOO",
"OOOOOOOOOOOOOOOOXXXXXXXXXXXXXXXXXXXXXXXXoXXX XXXXOOOOXXOOOOOOOOO",
"OOOOOOOOOOOOOOXXOOOOXXXXXXXXXXXXXXXXXXXXXXXXXXOXXXOOOOXXOOOOOOOO",
"OOOOOOOOOOOOOOXOXOOOOXXXXXXX  XXXXX.XXXXXXXXXOOOXXOOOOOXOOOOOOOO",
"OOOOOOOOOOOOOXXOXXOOOOXXXXXXXXXXXXXXXXXXXXXXOOOOXXOOOOOOOOOOOOOO",
"OOOOOOOOXOOXXXOOOOXXXOOXXXXXXXXXXXXXXXXXXXXOOOOXXOXOOOOOOOOOOOOO",
"OOOOOOOOOXXOOOOOOOOOOXXXXXXXXXXXXXXXXXXXXXOOOXXXOOOXXOOOOOOOOOOO",
"OOOOOOOOOOOOOOOOOOOOOOOOOOOOXXXXXXXXXXOOOXOXXOOOOOOOXOOOOOOOOOOO",
"OOOOOOOOOOOOOOOOOOOOOOOOOOOOOOOOOOXOOOOOOXXXOOOOOOOOXOOOOOOOOOOO",
"OOOOOOOOOOOOOOOOOOOOOOOOOOOOOOOOOOXOOOOOOXXOOOOOOOOXXOOOOOOOOOOO",
"OOOOOOOOOOOOOOOOOOOOOOOXXXXXXXXXXXOOOOOXXXXXOOOOOXXOOOOOOOOOOOOO",
"OOOOOOOOOOOOOOOOOOOOOOXXOOOOOOOOOOOOOOXXOOOXOOOOXXOOOOOOOOOOOOOO",
"OOOOOOOOOOOOOOOOOOOOOXXOOOOOOOOOOOOOOXXOOOOXOOOOOOOOOOOOOOOOOOOO",
"OOOOOOOOOOOOOOOOOOOOXXOOOOOOOOOOOOOOOXOOOOOXXOOOOOOOOOOOOOOOOOOO",
"OOOOOOOOOOOOOOOOOOOOOOOOOOOOOOOOOOOOOXOOOOOOXOOOOOOOOOOOOOOOOOOO",
"OOOOOOOOOOOOOOOOOOOOOOOOOOOOOOOOOOOOOOOOOOOOXXOOOOOOOOOOOOOOOOOO",
"OOOOOOOOOOOOOOOOOOOOOOOOOOOOOOOOOOOOOOOOOOOOOOOOOOOOOOOOOOOOOOOO",
"OOOOOOOOOOOOOOOOOOOOOOOOOOOOOOOOOOOOOOOOOOOOOOOOOOOOOOOOOOOOOOOO",
"OOOOOOOOOOOOOOOOOOOOOOOOOOOOOOOOOOOOOOOOOOOOOOOOOOOOOOOOOOOOOOOO",
"OOOOOOOOOOOOOOOOOOOOOOOOOOOOOOOOOOOOOOOOOOOOOOOOOOOOOOOOOOOOOOOO",
"OOOOOOOOOOOOOOOOOOOOOOOOOOOOOOOOOOOOOOOOOOOOOOOOOOOOOOOOOOOOOOOO",
"OOOOOOOOOOOOOOOOOOOOOOOOOOOOOOOOOOOOOOOOOOOOOOOOOOOOOOOOOOOOOOOO",
"OOOOOOOOOOOOOOOOOOOOOOOOOOOOOOOOOOOOOOOOOOOOOOOOOOOOOOOOOOOOOOOO"
};
