/* XPM */
static char *result[] = {
/* columns rows colors chars-per-pixel */
"64 64 110 2 ",
"   c #267F3D",
".  c #327F37",
"X  c #3E7F41",
"o  c #565656",
"O  c #1E863D",
"+  c #24853E",
"@  c #29833F",
"#  c #258D3F",
"$  c #258541",
"%  c #298342",
"&  c #228942",
"*  c #3A8942",
"=  c #338148",
"-  c #3E9B4F",
";  c #3B9655",
":  c #3D9D56",
">  c #379559",
",  c #379F5B",
"<  c #3D9D59",
"1  c #39A057",
"2  c #3EA15B",
"3  c #458940",
"4  c #49984F",
"5  c #469755",
"6  c #4E9057",
"7  c #439C55",
"8  c #4B9B54",
"9  c #43975A",
"0  c #429B5A",
"q  c #4A9B5B",
"w  c #519454",
"e  c #539C55",
"r  c #5A9D59",
"t  c #629C58",
"y  c #779F54",
"u  c #40A053",
"i  c #48A756",
"p  c #44A25C",
"a  c #4CA35B",
"s  c #54A156",
"d  c #5DA35D",
"f  c #73A24E",
"g  c #6CA55F",
"h  c #589D68",
"j  c #64A664",
"k  c #6CAC63",
"l  c #74AE68",
"z  c #73B16C",
"x  c #74B272",
"c  c #80B672",
"v  c #8BBF76",
"b  c #8BC47E",
"n  c #DFDD7B",
"m  c #E4DF75",
"M  c #E6DD79",
"N  c #E3E174",
"B  c #E3E47A",
"V  c #8FCB86",
"C  c #92C181",
"Z  c #92CC82",
"A  c #93D48A",
"S  c #9DD18D",
"D  c #A0D38B",
"F  c #BBDF87",
"G  c #A2D393",
"H  c #A1D892",
"J  c #A8DA94",
"K  c #ABDE99",
"L  c #AEE194",
"P  c #B8E49D",
"I  c #B7E7A0",
"U  c #EFEC85",
"Y  c #F2EF86",
"T  c #F2EE89",
"R  c #EFF084",
"E  c #F2F085",
"W  c #F2F089",
"Q  c #EBEF90",
"!  c #F2EE93",
"~  c #C3E5AA",
"^  c #C4EFAC",
"/  c #CDEDB2",
"(  c #C9F5B1",
")  c #D4F7B5",
"_  c #DBF7B1",
"`  c #D5FCB5",
"'  c #DCFAB5",
"]  c #D5F6B8",
"[  c #D5FABC",
"{  c #DBFBB9",
"}  c #EAEFAD",
"|  c #EDF5A2",
" . c #E5F6AC",
".. c #EBF5AE",
"X. c #E4F9AD",
"o. c #E8F8AE",
"O. c #E3EFB2",
"+. c #E6F6B2",
"@. c #EAF7B1",
"#. c #E5F9B3",
"$. c #EAF9B2",
"%. c #E8F5BA",
"&. c #E0F8BD",
"*. c #EBF9B8",
"=. c #F3F0B2",
"-. c #F1F8B4",
";. c #F2FABC",
":. c #DAFEC1",
">. c #E3F7C5",
",. c #EFFAD3",
/* pixels */
"o o o o o o o o o o o o o o o o o o o o o o o o o o o o o o o o o o o o o o o o o o o o o o o o o o o o o o o o o o o o o o o o ",
"o o o o o o o o o o o o o o o o o o o o o o o o o o o o o o o o o o o o o o o o o o o o o o o o o o o o o o o o o o o o o o o o ",
"o o o o o o o o o o o o o o o o o o o o o o o o o o o o o o o o o o o o o o o o o o o o o o o o o o o o o o o o o o o o o o o o ",
"o o o o o o o o o o o o o o o o o o o o o o o o o o o o o o o o o o o o o o o o o o o o o o o o o o o o o o o o o o o o o o o o ",
"o o o o o o o o o o o o o o o o o o o o o o o o o o o o o o o o o o o o o o o o o o o o o o o o o o o o o o o o o o o o o o o o ",
"o o o o o o o o o o o o o o o o o o o o o o o o o o o o o o o o o o o o o o o o o o o o o o o o o o o o o o o o o o o o o o o o ",
"o o o o o o o o o o o o o o o o o o o o o o o o o o o o o o o o o o o o o o o o o o o o o o o o o o o o o o o o o o o o o o o o ",
"o o o o o o o o o o o o o o o o o o o o o o o o o o o o o o o o o o o o o o o o o o o o o o o o o o o o o o o o o o o o o o o o ",
"o o o o o o o o o o o o o o o o o o o o o o o o o o o o o o o o o o o o o o o o o o o o o o o o o o o o o o o o o o o o o o o o ",
"o o o o o o o o o o o o o o o o o o o o o o o o o o o o o o o o o o o o o o o o o o o o o o o o o o o o o o o o o o o o o o o o ",
"o o o o o o o o o o o o o o o o o o o o o o o o o o o o o o o o o o o o o o o o o o o o o o o o o o o o o o o o o o o o o o o o ",
"o o o o o o o o o o o o o o o o o o o o o o o o o o o o o o o o o o o o o o o o o o o o o o o o o o o o o o o o o o o o o o o o ",
"o o o o o o o o o o o o o o o o o o o o o o o o o o o o o o o o o o o o o o o o o o o o o o o o o o o o o o o o o o o o o o o o ",
"o o o o o o o o o o o o o o o o o o o o o o o o o o o o o o o o o o o o o o o o o o o o o o o o o o o o o o o o o o o o o o o o ",
"o o o o o o o o o o o o o o o o o o o o o o o o o o o o o o o o o o o o o o o o o o o o o o o o o o o o o o o o o o o o o o o o ",
"o o o o o o o o o o o o o o o o o o o o o o o o o o o o o o o o o o o o o o o o o o o o o o o o o o o o o o o o o o o o o o o o ",
"o o o o o o o o o o o o o o o o o o o o o o o o o o o o o o o o o o o o o o o o o o o o o o o o o o o o o o o o o o o o o o o o ",
"o o o o o o o o o o o o o o o o o o o o o o o o o o o o o o o o o o o o o o o o o o o o o o o o o o o o o o o o o o o o o o o o ",
"o o o o o o o o o o o o o o o o o o o o o o o o o o o o o o o o o o o o o o o o o o o o o o o o o o o o o o o o o o o o o o o o ",
"o o o o o o o o o o o o o o o o o o o o o o o o o o o o o o o o o o o o o o o o o o o o o o o o o o o o o o o o o o o o o o o o ",
"o o o o o o o o o o o o o o o o o o o o o o o o o o o o o o o o o o o o o k : < ; 0 0 o o o o o o o o o o o o o o o o o o o o o ",
"o o o o o o o o o o o o o o o o o o o o o o o o o o o o o o o o o o { 0 < +. .^ 7 7 J 0 o o o o o o o o o o o o o o o o o o o o ",
"o o o o o o o o o o o o o o o o o o o o o o o o o o o o o o o ,.e : Z *...@.@.@.$.$.@.&.2 V o o o o o o o o o o o o o o o o o o ",
"o o o o o o o o o o o o o o o o o o o o o o o o o o o o o / : 1 #.$.@.@.$.$.#.*.v I ....$.u d o o o o o o o o o o o o o o o o o ",
"o o o o o o o o o o o o o o o o o o o o o o o o o o =.T R F d r : S @.@.@.@.s 0 1 1 1 =.+.$.0 4 o o o o o o o o o o o o o o o o ",
"o o o o o o o o o o o o o o o o o o o o o o o o H 0 > T E T W #.+. .X.7 *. .v < < : < ..@...S : a o o o o o o o o o o o o o o o ",
"o o o o o o o o o o o o o o o o o o o o o >.7 5 [ X.D $.T Y Y T $.@.@. .s $.@.$.' #.$.@.@._ 1 < : 7 o o o o o o o o o o o o o o ",
"o o o o o o o o o o o o o o o o o o o c 7 d #.#.@.J $.@.@.E Y E Y +.$...$.0 $.@.#.@.@.@.$. .< < : / o o o o o o o o o o o o o o ",
"o o o o o o o o o o o o o o o o &.< 5 { $.$.@.@.@._ #.@.@.@.E T U Y #...$.$.` ..$.@.X.#.7 ; ^ 7 1 < o o o o o o o o o o o o o o ",
"o o o o o o o o o o o o o o 8 < < 7 _ $.@.@.o...o.#.5 @.@.@.$.T E Y Y o.....L $.$.K 0 e H p 0 < < [ o o o o o o o o o o o o o o ",
"o o o o o o o o o o o o o g z 0 < ; #.@.@.&.8 : C $.-.5 @.@.@.@.Q Y Y Y | 8 @.; 5 [ 1 2 0 : < < [ < o o o o o o o o o o o o o o ",
"o o o o o o o o o o o o o @ * ` q O.+.@.$.2 < < < 7 ..@.{ 7 } @...! E E E f e j < 2 : 0 < < < { u A o o o o o o o o o o o o o o ",
"o o o o o o o o o o o o o $ $ * ) 0 _ @...5 < 0 ; { ..$.@.#.$.{ t q y E T m < : < < < 7 < [ ` a 0 < o o o o o o o o o o o o o o ",
"o o o o o o o o o o o o o [ $ $ + #.> P o... . . .+.$...@.@.@.e 1 b 8 B N N : < < 2 0 r d : < < h o o o o o o o o o o o o o o o ",
"o o o o o o o o o o o o o 3 [ $ % @ ;.; l ..X.#.$.@.$.-.{ < i :.2 7 < N m N : [ [ [ < < < < < o o o o o o o o o o o o o o o o o ",
"o o o o o o o o o o o o o @ . [ % $ & #.0 < 0 ; 8 +.7 0 ~ 5 0 < : < < N N n V s < < < < < o o o o o o o o o o o o o o o o o o o ",
"o o o o o o o o o o o o o $ O = [ O + O _ , , : < w G < 5 1 0 < < : { E U M < < : < < o o o o o o o o o o o o o o o o o o o o o ",
"o o o o o o o o o o o o o o $ $ # g X $ X +.- ( p 0 < < < < < p [ P 7 N m m < < < o o o o o o o o o o o o o o o o o o o o o o o ",
"o o o o o o o o o o o o o o o @ & % L O $ % < < < < < < : [ 6 S : 7 < N N N 0 o o o o o o o o o o o o o o o o o o o o o o o o o ",
"o o o o o o o o o o o o o o o o % $ O ] % @ < < < < 7 ] [ q < 1 < < 0 m m o o o o o o o o o o o o o o o o o o o o o o o o o o o ",
"o o o o o o o o o o o o o o o o o % % $ &.  0 ; 0 j x 0 < < < < < < 9 o o o o o o o o o o o o o o o o o o o o o o o o o o o o o ",
"o o o o o o o o o o o o o o o o o o % & $ %.8 { [ < < < < 2 0 2 o o o o o o o o o o o o o o o o o o o o o o o o o o o o o o o o ",
"o o o o o o o o o o o o o o o o o o o $ & + < < 0 < : : < 9 o o o o o o o o o o o o o o o o o o o o o o o o o o o o o o o o o o ",
"o o o o o o o o o o o o o o o o o o o o % $ < < < < 7 o o o o o o o o o o o o o o o o o o o o o o o o o o o o o o o o o o o o o ",
"o o o o o o o o o o o o o o o o o o o o o + 7 < h o o o o o o o o o o o o o o o o o o o o o o o o o o o o o o o o o o o o o o o ",
"o o o o o o o o o o o o o o o o o o o o o o o o o o o o o o o o o o o o o o o o o o o o o o o o o o o o o o o o o o o o o o o o ",
"o o o o o o o o o o o o o o o o o o o o o o o o o o o o o o o o o o o o o o o o o o o o o o o o o o o o o o o o o o o o o o o o ",
"o o o o o o o o o o o o o o o o o o o o o o o o o o o o o o o o o o o o o o o o o o o o o o o o o o o o o o o o o o o o o o o o ",
"o o o o o o o o o o o o o o o o o o o o o o o o o o o o o o o o o o o o o o o o o o o o o o o o o o o o o o o o o o o o o o o o ",
"o o o o o o o o o o o o o o o o o o o o o o o o o o o o o o o o o o o o o o o o o o o o o o o o o o o o o o o o o o o o o o o o ",
"o o o o o o o o o o o o o o o o o o o o o o o o o o o o o o o o o o o o o o o o o o o o o o o o o o o o o o o o o o o o o o o o ",
"o o o o o o o o o o o o o o o o o o o o o o o o o o o o o o o o o o o o o o o o o o o o o o o o o o o o o o o o o o o o o o o o ",
"o o o o o o o o o o o o o o o o o o o o o o o o o o o o o o o o o o o o o o o o o o o o o o o o o o o o o o o o o o o o o o o o ",
"o o o o o o o o o o o o o o o o o o o o o o o o o o o o o o o o o o o o o o o o o o o o o o o o o o o o o o o o o o o o o o o o ",
"o o o o o o o o o o o o o o o o o o o o o o o o o o o o o o o o o o o o o o o o o o o o o o o o o o o o o o o o o o o o o o o o ",
"o o o o o o o o o o o o o o o o o o o o o o o o o o o o o o o o o o o o o o o o o o o o o o o o o o o o o o o o o o o o o o o o ",
"o o o o o o o o o o o o o o o o o o o o o o o o o o o o o o o o o o o o o o o o o o o o o o o o o o o o o o o o o o o o o o o o ",
"o o o o o o o o o o o o o o o o o o o o o o o o o o o o o o o o o o o o o o o o o o o o o o o o o o o o o o o o o o o o o o o o ",
"o o o o o o o o o o o o o o o o o o o o o o o o o o o o o o o o o o o o o o o o o o o o o o o o o o o o o o o o o o o o o o o o ",
"o o o o o o o o o o o o o o o o o o o o o o o o o o o o o o o o o o o o o o o o o o o o o o o o o o o o o o o o o o o o o o o o ",
"o o o o o o o o o o o o o o o o o o o o o o o o o o o o o o o o o o o o o o o o o o o o o o o o o o o o o o o o o o o o o o o o ",
"o o o o o o o o o o o o o o o o o o o o o o o o o o o o o o o o o o o o o o o o o o o o o o o o o o o o o o o o o o o o o o o o ",
"o o o o o o o o o o o o o o o o o o o o o o o o o o o o o o o o o o o o o o o o o o o o o o o o o o o o o o o o o o o o o o o o ",
"o o o o o o o o o o o o o o o o o o o o o o o o o o o o o o o o o o o o o o o o o o o o o o o o o o o o o o o o o o o o o o o o "
};
