/* XPM */
static char *a983ca8fa9bc44a39361892cd2d9dcf3Jhwy94sbcYF3rK9l[] = {
/* columns rows colors chars-per-pixel */
"64 64 239 2 ",
"   c #040403",
".  c #080706",
"X  c #040A05",
"o  c #090A06",
"O  c #050509",
"+  c #060C09",
"@  c #0C0D0A",
"#  c #100E0C",
"$  c #1C0A0B",
"%  c #091507",
"&  c #0C120D",
"*  c #12120E",
"=  c #161A0B",
"-  c #0E1511",
";  c #0D1912",
":  c #131512",
">  c #191613",
",  c #131A14",
"<  c #1B1B15",
"1  c #121619",
"2  c #151C19",
"3  c #1D1D19",
"4  c #250A09",
"5  c #2B100E",
"6  c #291515",
"7  c #231D15",
"8  c #211F1B",
"9  c #341515",
"0  c #1B2509",
"q  c #0F2318",
"w  c #1B2514",
"e  c #15221A",
"r  c #1C221C",
"t  c #1A2819",
"y  c #22231C",
"u  c #2A261D",
"i  c #26291B",
"p  c #35281D",
"a  c #303A16",
"s  c #211F20",
"d  c #162120",
"f  c #1D2521",
"g  c #1D2A22",
"h  c #1C3226",
"j  c #1E3529",
"k  c #242621",
"l  c #292622",
"z  c #242A24",
"x  c #2B2C24",
"c  c #252E29",
"v  c #2C2E29",
"b  c #332E23",
"n  c #382A23",
"m  c #302E2B",
"M  c #2D3125",
"N  c #25332B",
"B  c #253629",
"V  c #2C322B",
"C  c #2A392E",
"Z  c #323226",
"A  c #3A3326",
"S  c #33342C",
"D  c #3B352B",
"F  c #3A392E",
"G  c #312F30",
"H  c #2C3530",
"J  c #273931",
"K  c #2D3B32",
"L  c #343632",
"P  c #393733",
"I  c #333B34",
"U  c #3B3B33",
"Y  c #363939",
"T  c #3C3D39",
"R  c #451818",
"E  c #45382A",
"W  c #423C32",
"Q  c #493F33",
"!  c #413F3B",
"~  c #3C4F14",
"^  c #2E4134",
"/  c #34433A",
"(  c #37453A",
")  c #3B443C",
"_  c #4A542D",
"`  c #414136",
"'  c #43433B",
"]  c #494639",
"[  c #494A3E",
"{  c #574A3A",
"}  c #586D33",
"|  c #627633",
" . c #3E3E40",
".. c #413F40",
"X. c #3D4541",
"o. c #3C4C42",
"O. c #3C5244",
"+. c #3F554B",
"@. c #454642",
"#. c #484643",
"$. c #444B43",
"%. c #4C4C43",
"&. c #494748",
"*. c #4D4E4A",
"=. c #514F48",
"-. c #44544A",
";. c #45564B",
":. c #4B544D",
">. c #515146",
",. c #5B5546",
"<. c #54544B",
"1. c #5A5A4D",
"2. c #514F50",
"3. c #4F5653",
"4. c #4B5C52",
"5. c #565652",
"6. c #535B54",
"7. c #5C5B53",
"8. c #595B57",
"9. c #625747",
"0. c #615E5C",
"q. c #5A6C42",
"w. c #4E6458",
"e. c #53645A",
"r. c #58655A",
"t. c #5A655D",
"y. c #546A5E",
"u. c #626256",
"i. c #64645B",
"p. c #6A6759",
"a. c #6A6A5E",
"s. c #716C59",
"d. c #576B61",
"f. c #5C6C62",
"g. c #577263",
"h. c #5B7265",
"j. c #636A64",
"k. c #6C6C63",
"l. c #6F6D6A",
"z. c #726F60",
"x. c #716E6B",
"c. c #64736A",
"v. c #64766A",
"b. c #6A756C",
"n. c #727165",
"m. c #797667",
"M. c #74746A",
"N. c #7A796D",
"B. c #6C7C72",
"V. c #737C76",
"C. c #7D7C73",
"Z. c #797875",
"A. c #837E6B",
"S. c #827D75",
"D. c #6C8647",
"F. c #6B8275",
"G. c #75867A",
"H. c #828276",
"J. c #84847B",
"K. c #88877A",
"L. c #8A8A7D",
"P. c #9A957E",
"I. c #7A8981",
"U. c #7F9387",
"Y. c #848582",
"T. c #878985",
"R. c #8C8C83",
"E. c #908E84",
"W. c #86978B",
"Q. c #919185",
"!. c #94948B",
"~. c #999688",
"^. c #9A9A8D",
"/. c #879F91",
"(. c #8C9E93",
"). c #979592",
"_. c #9D9C93",
"`. c #9E9B99",
"'. c #A29E9C",
"]. c #8DA496",
"[. c #93A59A",
"{. c #98A699",
"}. c #A7A28D",
"|. c #A3A295",
" X c #A5A49B",
".X c #A9A799",
"XX c #ABAA9D",
"oX c #9BAAA2",
"OX c #9DB6A8",
"+X c #AAA6A2",
"@X c #ADADA3",
"#X c #A8ABA7",
"$X c #B2AEA9",
"%X c #A5B5AB",
"&X c #A7B7AB",
"*X c #B2B1A5",
"=X c #B4B4AC",
"-X c #BBB9AB",
";X c #ABBDB3",
":X c #B6B5B1",
">X c #BDBDB2",
",X c #C2BEAD",
"<X c #C2BFB7",
"1X c #AEC7B8",
"2X c #B8C6B9",
"3X c #C8C3AD",
"4X c #C3C3B5",
"5X c #C7C7BB",
"6X c #BDD3C6",
"7X c #C5C6C3",
"8X c #CDCCC4",
"9X c #D1CEC8",
"0X c #C6D6CB",
"qX c #D6D6C8",
"wX c #CBDAD2",
"eX c #D3DAD4",
"rX c #DCDCD3",
"tX c #E2DDD2",
"yX c #CAE3D5",
"uX c #D7E4DB",
"iX c #E5E6DC",
"pX c #E8E7D8",
"aX c #F1F0DE",
"sX c #DADDE0",
"dX c #DDECE5",
"fX c #DBF0E6",
"gX c #E7EAE6",
"hX c #EAEAE4",
"jX c #E9F3EB",
"kX c #F5F4E6",
"lX c #F5F5EC",
"zX c #F9F8E8",
"xX c #EDF8F4",
"cX c #F6F7F2",
"vX c #F5F9F6",
"bX c #FBFCF4",
"nX c #F5FCFB",
"mX c #FCFDFC",
"MX c #FDFEFE",
/* pixels */
"    O + - 3 z c L H H T X.X.X.X.I Y K Y I I J L z K c c V V c V H z c c z t k z g r f f d r e 2 2 < : : 1 1 , - - - - - - + @ O ",
"  + @ : e ; e g g N J K o./ I J / g J K ^ ^ j h j ^ K h j j j h h h h h j h t h q g r t e g q q q q ; ; ; % ; ; ; - - ; - ; 2 + ",
"  O Y 8.f.I.[.1XyXwXnXnXMXMXMXnXnXMXnXnXfX1X+ e e e ; , ; , ; , , ; & % & & X X ; + U.B.g.h.y.y.O.+.w.O.-.4./ ^ o.K B J z H - @ ",
"X & 8.o., g / $.I.;XT.MXMXMXMXMXMXMXMXMXxXN ].B.G.G.B.b.F.G.F.g.y.g.h.e.w.d.+.w.o.-.j 1Xg.F.O.4.w.K O./ +.; +.-.o.X.K X.X.K ; @ ",
"+ @ d.T. .3.6.j.B.V.c.nXnXMXmXmXmXMXbXnXxXv.b.b.B.y.y.f.4.h.v.c.d.4.4.4.-.;.( -.^ o.( oXy.w.-.e.-.y.O.w.o.X ; ; & ; ; X o.I ; - ",
"& - c.oX(.oX#X0XeXrX#XjXxXnXxXgXdXjXjXwXdXdXdXyX0XwX1X6XyXwXOX].].U.].U.].U.F.G.F.v.F.v.e.d.h.-.O.O.4.g.+.% K I N x c H o.g 1 - ",
": r W.8.Z.V.Y.I.Y.V.o.I.G.I.G.I.v.v.c.t.B.b.b.j.v.4.d.g.w.w.-.y.O.4.O./ O.O.o.^ ^ K c B z B g r e e z t h   j.5.*.8.6.*.d.o.2 1 ",
"2 d ;Xh.3.@.@.*.j.).jX+ < , ; : & : , : , ; @ # ; - & & & & ; & + X + + + % O % X + % + O X o X O X X X O o.h c k g 2 r 2 K r - ",
"r c W.X jXnXMXnXMX@ eXT.).+X+X'.!.T.K.$XS.S.S.Z.0.0.@.8.T ! *.m @.T 5.T ] P P ! 8 l b m S P P l m l > 3 3 I + ( I ) C )   t , , ",
"r z W.2 rXbXMXMX; 7X9X9XhXiXcXiXcXhXlX'..X$X!. XR.E.Z.M.7.8.l.S b.@.! 5.k.=.*.S =.5.=.! S U x v W x y r < * I X ( O.J N   X , - ",
"z B #Xr gXnXMX& 2XZ.vXhXcXbXbXbXmXcXhXiX,X=X<XrX'.$X).C.Z.0.n.8.E.L.*X'.^.7.1.k.l.u.%.' ] ] <.' #.y F U y y < @.X o.J / O X e ; ",
"k K OXX xXMXMX{.2X4X8XmXmXbXmXMXiXcXbXpX<X'.5X-X-XH.~.J.n.E.J.i._.H.H.p.C.<.N.k.u.K.#.>.u.M.<.[ ] 1.F < x < < = k K ^ ^ H X e 1 ",
"f I /.q.iXMXMX%XtXbXMXmXmXmXmXmXbX9XrXpXqX4XhXT.*XE.).C.E.).J.1.J.J.l.M.a.M.i.n.'.7.>.' 1.S >.] >.[ F F M x x < S -.O.^ 0 t t : ",
"c K OX~ gXmXmX(.lXcXcXmXcXmXmXmXmXrXrX@XiX4X8X*X.X@XR.!.Q.H.k.%.*Xk.n.C.<.1.N.0.p.[ #.%.] <.S U S U F U 9.x x y t g.O.) 0 0 e : ",
"c C 0X} uXmXmX;XhXhXmXcXcXMXcXmXMXhXlXhXhXhXhX$X=X#X_.@XL.Y.S.i.Q.M.x.J.n.J.j.i.%.<.7.7.<.=.<.Z.' ' ' ) m y x k y v.O.( w t 2 , ",
"v C OX% tXmXmX%X7X+X'.`.eXtX7X!.'.9X).'.'.Y.T.l.l.`.S.5.0.0.&.P 8.2.&.T ' P L x V l 3 k @.v < < l 8 y 7 . #.# * r g.y.w.X t , - ",
"L C yXe eXMXMX[.#X`.>X7XgX7X).+X7X+X+X$XS.x.T.x.l.0.:X5.5.0.8.P ! ' T &.! P l T ..0.5.k 3 l < k 8 < k 8 3 ! # 3 3 J -.J ; X - ; ",
"c H yX, xXgXnX%X`.J.$X>X9X9X:X$X).`.'.S.).T.Y.S.x.k.x.2.=.#.*.=.2.P ! ! m L @.x &.S P k x 8 8 x 3 3 > < < & * * z I / K   e ; 1 ",
"c I wX{.xXfXvX%X9XlXhXbXcXeXqXtXcXhXhXbX:X<X<X<XXXQ.@X!.%.k.S.k.C.i.0.k.7.i.7.x.7.1.S <.#.Z &.x S ! v b u S x < c ^ C X.i X ; : ",
"x I uXD.dXwXvX].).).T._.).Z.T.Y.Y.).).T.0.x.x.l.0.j.8.@.0.8.2.&.M.@.m T v T 5.! k 8 T l m < v k > < < y < > < # c ( I / a t , : ",
"V C &X| jX/ t.OXY.E.x.Z.S.Y.`.).J.Z.`.S.S.k.j...0.8.#.<.0.8.*.' G U <.' W #.l P l ' <.L 3 x P k v l 8 > 3 > # @ f , - ( 0 w e , ",
"V B 0X% gX8.%X(.>XaXcXlXU ' U L ' U @.=X8X5X<XL.~. XH.C.H.L.Q.r.Z.k.l.<.r.7.[ U 0.' [ O @ y < < @ @ @ F x U y 3 z c V o.% t ; - ",
"c J 0Xd nXnX7XT.*XrX8XiX*.%.@.5.T ' @.R.|.^.L.E.N.E.M.G.E.'.Q.%.J.H.M.1.*.u.*.a.7.&.%.> * * : @ + @ > F L 3 k 8 r K J I 1 , e - ",
"c C 6X1 fX2Xe.(.@XqXzX2X$X:X#X=X$X=X:X Xm.'..X!.*XL.K.~.P.Q.R.>.J.i.k.u.i.1.U *.' <.! ! ' U U S L P v [ 3 y y 3 r f 2 J , c ; < ",
"z J {.| qX$.[.].L.2XqXpXx.l.l.8.5.M.T.+X*X{.XXE.~.~.J.C. Xj.1.%.b.l.7.1.1.' ' >.' [ *.3 < r 2 8 y : < S [ y y y r e d K M w 1 - ",
"k t G.0 0X$.X.oX!.5X4XkX<X<X5X:X#X).#X*XL..X^.).>XE.C.C.u.C.S.1.k.0.7.5.5.=.%.' >.*.` %.*.#.' U T L T x y < x y z f g X.t i ; & ",
"r h I.-.2XfXdXG.L.R.~.qXkXkXpXaXpXzXrX|.|.=X+XN.{.9XC.R.u.n.a.<.m.1.t.k.7.%.5.T #.<.[ ,.1.n.] ,.#.M V Z ) l y < k g N K % V - 1 ",
"z c B.< wX-.B.G.R.,XE.5X-XpX.X~.,X.XXX*X^.N.C.5Xm.K.a.J.k.n.N.1.l.i.,.1.u.0.7.<.i u ) ` F ` Z ` y ' Z #., x < y z f ; f 2   e & ",
"z J B.% wXO.F.V.n.@X~.@X4X@X~.=X<X'.Q.H.L.J.K.n.qXrXlXS.N.i.R.] 7.<.a.n.u.*X#.U U Z U U F <.z x y S < i u i z < d h ; K , @ 1 - ",
"r r W.w 0XO.v.a.S l y w M y i a * y { { w F n.E.=XL Y. Xk.N.k.%.7.1.<.k.lX:XH.%.#.S : * o = o = & * o   % + o @ f ; & N - ; & & ",
"r c ;X_ ;X( w.v.4XzXbXaXtXaXzXzXzX5XtXpXtX3XZ m. XrXaXN.k.a.<.) x.>.*.>.* Q.@ ` [ N.A.p.p.u.9.s.p.9.{ 1.,.{ ` S k 3 & N 0 z , - ",
"r g ;X~ 0X) w.b.P.8X-X.XP..X5X5X~.5X}.}.5X-X.XG.#.9X0.u.k.7.u.S *.' <.<.F * 7.N.@ m.>.{ ] ` Z ` ] ^ F A S x i y 2 3 ; J 0 B , - ",
"r t {._ &X].G.e.K.G.Q.Q.'.R.,X~. X~.,X*XK.Q.{.a.K.A.p.-Xa.,.a.%.5.%.] ] n.Z 1.[ a.>.` ] ) S x v x x S u u z l < 2 z c I w C : * ",
"r h W.* &XV.g 6.n.N.n.L.1.n.~.^.n.a.P.^.K.H.a.|.i = p i A A i @ * = i i x = i * >.[ F [ u S x S y k S r 3 y y < r @ + K o C < & ",
", t [.> OXy.v.y.u.L.7.a.K.H.*XG._.M.>XN.~.'.C.E.P.|.P.3X}.P.P.>.H.m.A.m.s.u.N.1.U U L u x b V ' y x x r y < < < z x e j.  + ; - ",
"2 z ].> ;XV.e.e.p.i.a.|.p..XH.k.1.a._.K.E.a.i.i.a.>.K.m.m.z.A.x A.n.9.p.n.m.p.` S x L S S x x v x k x y y < = y 2 z = f.X   ; ; ",
": g [.X {.G.v.-.[ U M.H.[ ^.k.C.5.K.N.K.n.p.<.>.m.a.u.[ p.u.u.F 7.<.] 1.b ] s.U U x S S i x v k x k v y < y * * z g y , i   , - ",
"< e ].~ (.G.:.6.#.u.#.u.t.M.a.,.n.a.K.G.0.r.k.[ >.>.%.7.u.*.a.' *.n.x @.W U S U U P x U L l v y z x y y * y < < g z k ( 0 t : ; ",
": e G.a G.K 4.$.7.<.^.k.n.M.a.a.1.^.a.a.a.<.N.<.a.[ 1.[ %.<.j.m @.U U U U v M ' x b Z x x S y y y y k < k y y , z g r C 0 % 2 - ",
"- w T.a G.F.N -.%.i.1.7.|.n.n.n.] >.i.p.1.<.%.F <.u.' l.' U %.M <.S ` S L @.x W x x k S U x S x y y y 3 y < r > z ; g / = t ; & ",
"- ; e.X c.h.y.( <.a.l.M.<.r.1.u.C.u.k.<.%.[ =.[ n.) U U 7.S M ' $.S x T ] n ' b x y u v S S L m 7 u y 3 = < * 7 r K / H :   - & ",
"1 , e.+ j.w.4./ V <.,.1.z.s.N.a.<.R.` %.>.>.' *.<.%.` ' J.u.F F &.U *.i E 9.{ { u y [ 8 m < L A u u 7 E E E A = z -.C C O   ; & ",
"- e :.o.f.g.I.( <.n.1.' a.1.i.i.>.r.>.[ %.] [ U [ n.U U >.u ,.[ ) y L L 9.E { { ] x W x L Y T A E W E E p A p 7 r f.N g V I ; - ",
"@ 2 6 4 4 9 b.o.' S n.i.[ %.u.<.%.z.7.[ >.[ *.#.' k.S ' Z ` <.` ] S < F { Q E { { 7 y x v P T n E u x A D n n p g o.7 < l > : : ",
"@ < 9 9 9 R A ) T %.*.] <.<.>.=.a.S %.U F x ] L $.b k.S ` %.[ ] ' S =.S ] E { { Q x m m v S P x E E b A u p E > r ) 4 4 5 4 > - ",
"& & 3 n x U b.K ' ' U >.*.1.W [ ` 7.1.*.U M U U W U x U n.u F S ' b ] S l { ,.W y x P y v P x u n u l x y 8 < * r $.6 $ * $ - - ",
"# - k x c V z I U S 1.' F U >.U 1.U [ u.U :.k.Z U ' U L a.x ` F ' U u { u F ' x S ..v r k x k k y y > 3 w * : : r g k k r e ; @ ",
"# # l x x m V K k >.<.*.' <.$.[ ] F ' U F S ] S x S x S U U Z U ' U D y F F y c @.k k k y x r 3 y y y y < < < : r x 7 > 7 3 1 - ",
"+ - f c S V g N x y = < >.S U S U ` >.L U S S x L ] L x W S U Z [ D S x x < y u y y < z y < < < : < y y > < w > r g 2 , q 2 & & ",
"@ - 6 9 5 9 7 z v k L x ' x ` S S U x F F u S Z ' S U S y x Z Z U S 8 k y < x : r y y < < < y k < < * y y < : : f 6 4 4 4 $ < * ",
"+ @ P m U L I N y L < 5.) i x S x Z x x x b S U U S x S M M P x L u k k y x x S x 3 < y y < > y y 3 < r * * & * 2 z S r k c e @ ",
"O + N = t K / N : S u i y S x [ F x Z x V M y L 3 v x i ` < m m S y u z v i y x y y < 3 7 , 3 w , i < < y = * = 2 c B = w z - % ",
"+ @ g   t / K z : x x *.F V Z #.' U ' y x x k S x x y w P y y x l < y y y y y 3 < y w > : : < y < y * < = < * o 2 6.g   = d & @ ",
"+ @ d   X V C g k @ z < o < * x y   L * S < O < @ 3 y * y @ x x L o 3 < o y X < y @ < o < y o y o y ,   @ o * = 2 f N O   c 2 & ",
"O @ r     c g f : Z o i y < < & x U x F * x S k x * < x y M o x v x = , < y < > * y 8 < : @ 8 : * < @ < * * # @ r f z O X g - & ",
". X e :   z g r y 3 S T k x y x U x U < >.7.8 8 * V x < 8 @ U x x 3 S L k x < ) F < y < x k < > @ < y @ * @ y @ r , C & X r 1 & ",
"X O - = % g e r : * > m 8 s 3 > > # @ # # @ : > 3 8 > : # # > < 8 # > > : # # * 8 < < > 3 : > < > 8 # > # # * * r B J * = f - % ",
"O + 1   O g 2 r @ # : : * * : # > > 8 @ : < : : # : s 3 : : > < y # * * : # * : # # # @ # # # # @ # @ # # * @   2 g N X X f - @ ",
"O X - +   r g 2 # . : . O #   *   @ # @ @ # O @ O . # @ # O # > @ . O :   *   . @   #   O #   @ O   #   :     O f / V O   f - @ ",
"O X @   , r ; 1 @ . @   . #   #   . >   l >   # . . .   #   . < >   # : . #   . #   #     @   .     #   +     @ f K X.O f d & & ",
"  O - 2 f 2 ) , .   :   . :   @     >   @ .   @ . @ . . #   @ : :   O >   >     # O +     @   @         :       r 6.g H c e 1 % ",
"o & < : 2 2 1 c +   #     #   @     #   @ @   : . O .   @     : >     *   *     *   :     #   #     :   #       K N N V J r r 1 ",
". & , - > , r r .   :   o * . .     : . @ .   : . .     : . @ : : .   #   :     #   o .   @   o     @   .       c w B y z z y - ",
"    O . X + @ : .   @ + o @ O $   O @ . . @   * @ o O @ @ . O : : o O #   # . . *   @ . O @   # . O @   . +   + : : @ - & : @ X "
};
