/* XPM */
static char *_2783e41d7f64cb4f5d4498c1def833cxxlia5yyMDsHF6PO[] = {
/* columns rows colors chars-per-pixel */
"64 64 215 2 ",
"   c #010101",
".  c #090505",
"X  c #0A0907",
"o  c #0C0B0A",
"O  c #110801",
"+  c #191201",
"@  c #0C0C15",
"#  c #130F16",
"$  c #1A1315",
"%  c #2C1A0A",
"&  c #382302",
"*  c #24231D",
"=  c #2A241C",
"-  c #392B1C",
";  c #1E1D2E",
":  c #211F2E",
">  c #26232E",
",  c #272431",
"<  c #2D2B34",
"1  c #312E36",
"2  c #383439",
"3  c #422602",
"4  c #492D02",
"5  c #583702",
"6  c #482E14",
"7  c #663B02",
"8  c #423B3C",
"9  c #784902",
"0  c #564C3D",
"q  c #272A4D",
"w  c #2A2B4B",
"e  c #39374B",
"r  c #3A3E5E",
"t  c #373A62",
"y  c #413E4E",
"u  c #3F415E",
"i  c #3E4277",
"p  c #3E417A",
"a  c #484349",
"s  c #594E42",
"d  c #464559",
"f  c #534B5A",
"g  c #56485D",
"h  c #5A545C",
"j  c #6D565E",
"k  c #635B5E",
"l  c #72575D",
"z  c #696453",
"x  c #454462",
"c  c #4D4C64",
"v  c #53526A",
"b  c #5B576B",
"n  c #424176",
"m  c #4E4C75",
"M  c #4B467A",
"N  c #464A7C",
"B  c #4C4B7F",
"V  c #534F7E",
"C  c #4E5377",
"Z  c #4D5179",
"A  c #535475",
"S  c #585876",
"D  c #5C5B75",
"F  c #55517E",
"G  c #5B557E",
"H  c #5C5B7C",
"J  c #695C76",
"K  c #60567F",
"L  c #625C7C",
"P  c #5F6075",
"I  c #6B6466",
"U  c #736866",
"Y  c #7C746D",
"T  c #646475",
"R  c #63617D",
"E  c #6B657D",
"W  c #6B6878",
"Q  c #786578",
"!  c #736C7D",
"~  c #885002",
"^  c #955802",
"/  c #A86402",
"(  c #C87902",
")  c #986D6E",
"_  c #8E716D",
"`  c #816574",
"'  c #866B79",
"]  c #936D72",
"[  c #857775",
"{  c #FFB703",
"}  c #FFC202",
"|  c #958665",
" . c #898379",
".. c #998B78",
"X. c #A4937B",
"o. c #454784",
"O. c #494781",
"+. c #444884",
"@. c #4C4B80",
"#. c #444789",
"$. c #45488B",
"%. c #484B8E",
"&. c #514D80",
"*. c #555280",
"=. c #5B5581",
"-. c #5D5B81",
";. c #615481",
":. c #635B82",
">. c #6A5D82",
",. c #705F84",
"<. c #656283",
"1. c #6C6284",
"2. c #6B6985",
"3. c #6F698A",
"4. c #726585",
"5. c #766787",
"6. c #756A86",
"7. c #7A6B87",
"8. c #736C89",
"9. c #7B6D89",
"0. c #7B7383",
"q. c #787689",
"w. c #7C748C",
"e. c #7D7791",
"r. c #7F7991",
"t. c #826E89",
"y. c #847A86",
"u. c #83738B",
"i. c #89758C",
"p. c #857A8D",
"a. c #8A7A8E",
"s. c #847D93",
"d. c #8D7D91",
"f. c #937E92",
"g. c #878187",
"h. c #8D828C",
"j. c #96898B",
"k. c #878295",
"l. c #8B8396",
"z. c #8F8897",
"x. c #8C8598",
"c. c #8F8999",
"v. c #938293",
"b. c #998595",
"n. c #938997",
"m. c #9B8B95",
"M. c #958B9A",
"N. c #9A8D9A",
"B. c #999395",
"V. c #9C929D",
"C. c #A48998",
"Z. c #A28C99",
"A. c #A69596",
"S. c #A2959C",
"D. c #AA959C",
"F. c #A59A9E",
"G. c #AC9A9E",
"H. c #B6999E",
"J. c #B29C9F",
"K. c #ADA49C",
"L. c #9D93A1",
"P. c #A297A1",
"I. c #A59AA2",
"U. c #AA9DA3",
"Y. c #B49EA0",
"T. c #BC9FA2",
"R. c #ADA1A5",
"E. c #AEA3AA",
"W. c #B3A4A4",
"Q. c #BBA4A3",
"!. c #BBABA6",
"~. c #B4A7A8",
"^. c #B5A9AB",
"/. c #BBADA9",
"(. c #BEB1AC",
"). c #BDB1B2",
"_. c #C3AE82",
"`. c #C5B186",
"'. c #C3B890",
"]. c #C1A5A3",
"[. c #C3AAA6",
"{. c #C8AEA8",
"}. c #C4B3AA",
"|. c #CBB4AB",
" X c #C9B8AB",
".X c #D2B6AD",
"XX c #D4BBAD",
"oX c #D8BEAE",
"OX c #CABBB4",
"+X c #D7BEB1",
"@X c #E7D09C",
"#X c #E9D19C",
"$X c #D8C1AC",
"%X c #D5C2B2",
"&X c #DCC4B1",
"*X c #DECAB2",
"=X c #D8C6B9",
"-X c #E4CEAC",
";X c #E3C6B2",
":X c #E4CBB4",
">X c #EBCEB4",
",X c #E6CFBA",
"<X c #ECD1B5",
"1X c #EAD4BA",
"2X c #F2D4B6",
"3X c #F4DAB7",
"4X c #FBDCB6",
"5X c #F3DBBA",
"6X c #F8DEBA",
"7X c #FEE3A7",
"8X c #FFE5AB",
"9X c #FFE5AD",
"0X c #FFE6AC",
"qX c #FFE3B4",
"wX c #FEE2B9",
/* pixels */
"    . 5 5     + 5 & 4 + 4 5 +   .       . . .     . . .       . . .         .     .     + & 5     % 9 O     4 & 4 & + 4 3   .   ",
".   9 { (     & / ^ 7 7 / ( &     .       .         .       .         @             .   4 ~ / . O ( } &     ^ ~ ^ 5 ~ ( ^       ",
"    . = 6 = = * $ # @ $ $ $ @ @ # @ @ @ @ @ @ @ @ @ @ @ @ @ @ @ @ # @ @ @ @ @ @ @ @ @ @ $ % = # # # - = = = - = = = - - - o     ",
"    z @X#X#X-XM n m M n M p p t t o.n t t o.p p #.t o.t p p #.t i t o.t n i i n n n n n n n n M A W W }.#X#X#X#X#X#X#X#X#X| .   ",
"    | 8X8X7XS.M &.M N N O.O.#.o.+.N o.o.+.#.#.#.#.#.#.#.o.#.#.#.o.+.o.o.o.o.o.N o.N o.o.O.O.N V V >.N.a.5X7X8X8X8X8X8X8X0X_.X   ",
"    | 8X7XqX2.B O.O.o.+.O.#.o.o.o.o.o.o.#.#.#.o.#.#.#.o.#.#.+.#.+.+.+.M N O.o.o.o.O.M o.O.O.O.@.V F w.4.U.9X8X9X8X8X9X9X0X`.X   ",
"    | 7X*Xe.Z O.O.O.o.+.o.o.N o.#.o.+.#.#.#.#.o.#.#.#.#.#.#.#.o.#.+.N o.O.O.M o.O.O.o.O.O.o.@.@.V =.>.>.q.|.9X8X9X8X8X8X7X_.X   ",
"    | %X&.N O.o.o.o.o.o.+.o.o.o.+.o.o.#.#.#.o.#.#.#.#.#.o.o.#.o.o.o.o.O.o.V @.M B B N O.+.M N B V V ;.8.:.d.XX9X9X8X9X8X8X_.X   ",
"    k V O.M N o.o.N o.o.o.o.#.#.o.+.#.#.#.+.#.o.o.#.#.o.o.#.#.o.o.o.M O.M &.&.&.V &.M o.M O.O.@.B V V :.:.m.V.wX8X8X8X9X8X_.X   ",
"    w o.o.o.o.o.o.o.#.#.#.#.#.o.+.#.#.#.#.+.+.#.#.#.#.#.#.o.#.#.+.O.M O.O.F =.V &.V B B V B O.@.V B G =.H u.v.}.9X8X9X9X9X`.X   ",
"    w O.o.o.o.o.o.#.$.#.$.#.#.o.+.#.#.#.#.o.o.#.#.#.#.#.#.#.o.o.o.V @.O.M ;.K F &.=.&.&.@.O.@.B B V *.=.:.1.p.F.,X8X8X9X8X_.X   ",
"    w N o.+.+.#.o.#.#.#.#.#.#.+.#.+.#.o.#.#.o.#.#.#.#.#.#.o.#.o.M &.O.O.V :.>.*.G ;.V &.&.@.M B B &.*.*.:.:.6.S.K.qX8X9X9X`.X   ",
"    w o.+.+.o.o.#.o.#.#.#.#.#.#.#.#.#.#.#.#.$.#.#.#.#.#.o.o.o.M O.&.O.&.=.>.>.K =.1.=.=.V &.@.B B &.V G =.:.1.b.v.qX8X8X8X`.o   ",
"    w +.o.#.#.#.o.#.#.#.#.+.#.#.#.#.#.#.#.$.$.#.#.#.#.o.o.o.o.o.&.&.V F K 4.>.:.:.4.:.=.=.F @.@.@.&.&.G H =.:.6.h.1X8XqX6Xj.X   ",
"    w +.+.+.#.#.#.#.#.#.#.#.#.#.#.#.$.#.#.$.#.#.#.#.o.#.o.o.O.O.F &.&.V >.5.;.=.>.7.4.:.;.:.&.N B B &.V G F =.1.p.5X9XqX/.v .   ",
"    w o.#.#.#.#.#.#.#.#.#.#.#.#.#.#.$.%.$.$.#.o.#.#.#.p o.O.O.&.V N &.=.4.L G K 4.9.4.2.:.1.=.@.B V &.=.=.F F :.6.%X5X/.2.v .   ",
"    q +.#.#.#.#.#.#.#.#.$.#.#.$.#.$.#.$.#.o.o.#.#.o.p O.o.o.M &.&.&.V >.>.G F K 5.u.4.3.>.w.>.&.O.V B &.*.F *.G -.n.z.<.2.v .   ",
"    q +.+.#.#.#.#.#.$.$.$.$.#.#.#.#.#.#.#.#.#.o.o.o.O.#.o.M V V &.M K >.K F G 5.9.9.1.5.9.p.4.*.B B &.&.F @.=.*.F -.<.2.2.c .   ",
"    q +.#.#.#.#.$.#.$.$.$.#.#.#.o.o.#.#.o.+.#.+.o.o.+.+.o.M F =.V V :.K K F >.t.u.4.4.i.p.f.9.:.&.O.&.&.*.@.@.*.:.w.w.<.<.v .   ",
"    w +.+.#.#.#.#.$.#.$.o.o.O.O.O.#.o.#.+.+.o.+.#.o.o.M V F ;.;.M V =.>.*.>.t.i.i.6.9.N.v.D.d.>.=.M &.B @.&.*.:.:.N.z.<.2.m .   ",
"    w o.#.#.#.#.#.#.$.$.O.o.o.O.o.o.o.o.o.o.o.#.o.M &.V V G G F M ;.:.F L i.d.a.a.6.u.A.G.K.v.7.:.@.V B @.&.&.q.m.F.q.<.<.c .   ",
"    w +.+.#.#.#.$.$.$.$.+.O.M o.#.o.#.o.#.#.o.o.@.&.V =.=.K =.&.;.;.V >.d.f.a.f.a.7.7.N..X|.Z.d.G @.*.N N &.O.=.V.OX2.-.<.c .   ",
"    w +.#.#.#.$.$.$.$.$.N M o.o.o.#.#.#.#.#.o.o.N V =.:.,.>.G *.&.G 5.a.p.d.d.d.4.1.1.d.}.+XQ.m.=.B *.O.@.&.*.=.w.W.2.<.<.m .   ",
"    w #.#.#.$.$.%.$.$.#.#.o.+.#.+.+.o.o.#.#.#.o.o.o.&.;.>.K -.F :.i.v.i.p.u.6.:.*.V F =.1.w.].D.*.@.V O.&.=.*.:.w.J.j.h.A.Y .   ",
"    e +.#.#.#.%.%.$.$.$.o.N #.M @.*.*.*.*.Z o.o.#.#.+.N &.:.>.1.i.v.f.u.5.*.@.O.N O.O.O.B F q.v.F *.@.B &.=.-.2.v.B.8.! h.b .   ",
"    y +.+.#.$.%.$.$.$.$.+.B B K :.1.3.7.7.6.:.&.+.+.o.o.B <.5.u.i.d.p.4.*.o.+.+.o.o.V F -.8.w.6.B B B @.&.*.:.r.B.E H H E x     ",
"    e o.#.#.$.%.$.$.%.$.O.K :.1.1.>.;.*.V V *.*.=.-.*.@.V :.6.u.w.p.p.:.&.@.V F =.4.u.p.V.Q.W.q.*.N @.+.*.&.<.k.A.<.E <.H c .   ",
"    e o.#.$.$.$.%.$.$.%.O.1.1.1.:.G B o.+.@.*.*.&.=.:.:.:.:.4.t.p.a.f.u.4.1.:.=.:.:.1.a.D.|.&Xz.*.@.Z +.*.=.=.m.j.7.8.E <.c .   ",
"    u N N +.#.#.$.$.$.%.#.2.6.1.:.V O.=.8.-.-.w.1.&.V *.;.>.,.9.j.G.Q.a.1.:.F *.*.-.*.*.u.W.*XD.*.@.&.&.=.<.e.m.g.! 2.E R c .   ",
"    u +.#.+.#.#.$.$.$.$.V 3.6.2.:.*.V *.B +.o.B 2.*.V V =.:.4.t.D.&XJ.K &.*.*.&.:.W.:XM.a.Q.>X!.&.F &.-.1.k./.y.y.6.0.2.H c .   ",
"    e &.+.#.#.#.$.$.$.$.F 7.7.6.7.4.1.F O.o.o.o.&.B V =.F :.4.t.Q.:XJ.1.V @.+.+.o.M.|.].&X&X2X}.*.&.@.8.w.S.y.E R R 6.E :.h .   ",
"    a 3.+.+.#.#.$.$.$.$.G 7.7.7.7.6.4.1.G F &.*.V V V =.G :.4.i.].>X.Xp.G F F V &.3.d.+X3X2X6X&X*.*.s.V.s.g.<.R <.R H L ! U .   ",
"    a B.Z +.#.#.#.#.o.o.K 7.9.9.t.7.5.4.,.;.K =.*.*.;.:.;.J Q t.H.>XoX].4.G ;.1.5.d.{.>X5X3X4X>X=.-.V.V.j.y.y.0.y.R F H R j .   ",
"    u k.*.#.#.%.#.#.o.o.L u.u.t.9.5.,.L ;.G V G K >.>.,.;.,.5.t.T.2X;X;XT.7.1.>.5.f.Y.|.:X2X4X<Xe.V.*Xz.R h.y.y.6.! E Q ' j .   ",
"    e k.%X+.o.$.#.#.O.V :.u.0.u.9.6.5.,.>.,.Q ,.,.,.,.>.>.4.7.i.T.2X>X>X.Xb.f.f.v.Z.Y.].;X3X4X>X6X3Xy.E R R H 0.0.R ! L Q l .   ",
"    a F.1X8.B +.O.+.o.N 1.w.u.u.t.t.7.7.5.5.4.,.,.>.J >.>.5.7.i.T.2X2X>XoXD.m.b.C.Q.{.+X<X4XqX5XqXW.L 2.R H H R ! ! H L Q l .   ",
"    k W.*X/.Z B B B o.o.*.u.w.u.t.t.7.7.5.,.4.4.4.4.4.4.>.5.7.i.].2X2X2X<X.XD.b.b.I.].oX<X4X3XwX<XE E 2.H H G F K E E E Q l o   ",
"    U $X*XXXV.V.z.2.B o.*.u.9.t.t.t.u.7.t.5.5.4.>.>.J 4.,.4.5.t.].>X>X4X<XY.Z.C.b.D.Q.+X3X4X4XqX*XH <.W <.H <.H J J Q ' ' l .   ",
"    U *X%X X}.F.U.k.-.#.B u.9.u.u.u.u.t.7.7.>.;.G K >.:.>.,.4.t.H.>X>X>X;Xv.5.i.v.Z.Y..X>X4X6XqXK.H L H R 2.H S ! Q ` ' ' g .   ",
"    [ $X}.~.}.XXW.8.Z B B w.9.9.7.t.9.7.5.>.*.G =.:.>.;.J ,.4.t.H.;X2X;X>Xb.H 4.9.i.Z.{.:X4X5XwXq.F R <.H E R D J Q ] ] ` g     ",
"    Y !.!.}.%X/.k.<.H B @.w.9.7.7.7.6.5.>.=.=.:.G >.1.>.>.4.,.t.C..X2X2X4Xb.:.=.4.7.f.Q.*X5XwX,X-.Z H R P L G S ` ] ) ) Q g . . ",
"    U R. XXXR.z.l.k.q.*.-.w.8.6.7.4.1.>.=.&.=.K =.=.>.>.J 4.4.t.C.{.2X2X;Xp.4.:.-.5.i.Y.%X,X5X/.*.H H -.H G S J ] ) ) ] Q y     ",
"    k }.XXU.B.V.I.I.k.e.8.8.q.4.4.>.>.G &.V V F V B V :.>.,.5.t.f.].;X.XY.s.4.=.=.:.w.Z.%X5X=X8.F H S D S Z S b ) ) ) J G f .   ",
"    U %X/.F.S.~.}.F.l.x.c.s.5.3.1.1.:.B @.V V F V V B B &.>.4.7.a.].H.C.I.A.n.6.=.=.5.U.*X0X5X-.F C A S F N A b ) ) ` G S d .   ",
"    U (.R.V.F./.P.n.N.M.I.c.1.3.1.1.G B V =.;.;.:.=.=.V O.&.:.>.t.f.h.Q.%X;X{.p.:.-.5.!.5X7X XA S S C H D N N S _ Q D S H u .   ",
"    I F.M.F.~.V.k.V.N.V.W.r.:.1.1.1.=.G =.M o.@.G =.:.:.:.*.:.7.u.b.T.{.|.v.V =.,.3.n.+XqXwXy.H T H Z S T N m b Q R T S S d .   ",
"    h V.R.W.V.l.V.P.V.I./.*.*.1.:.:.<.K -.B %.O.K K =.*.=.;.:.1.7.d.C.H..XG o.6.3.9.!.1XqX5Xg.T T P N C S N N A I ! W A C d .   ",
"    I W.I.M.z.V.I.P.I.W.U.+.N <.<.-.L 1.-.K O.+.7.t.>.>.;.:.;.J a.C.{.oX4X:.9.D.9.M.%X6XwXwXB.T W W +.C S N N C I W A Z C r .   ",
"    h N.x.M.P.U.P.P.I./.s.o.@.*.<.<.<.<.K 1.=.B V a.v.h.p.A.u.m.;X&X2X3X[.f.XXQ.l.|.1XwX5XOXE.r.D C p Z C +.+.C T S C C C u X   ",
"    f n.V.U.U.I.V.L.I./.q.o.B F *.:.:.1.H <.:.G M G 2.m.m.!.G.|.2X>X&XU.Z.+X<X!.!.:X5X1X(.U.^.).B.C $.N A N N A b C i Z C u .   ",
"    h I.U.R.U.P.V.I.I.~.x.o.O.V B F :.<.=.:.1.*.V O.N o.*.w.5.f.F.<.>.C.:X>X>X}.&X1X,X^.V.I.U.^.).R.2.N p +.N C b C i N N t .   ",
"    b U.U.U.U.I.S.V.I.W.I.N +.B F *.F -.G :.1.:.G ;.*.M o.o.O.O.B K f.+X>X3X>X X%X%XU.M.M.V.I.U.E.).=XE.c.T S P W W W T P t .   ",
"    k U.U.I.I.P.V.V.F.R.W.F o.+.B G F *.F :.1.1.;.=.K ;.;.;.>.,.t.f.H..X<X<X;X X/.P.M.N.V.M.V.L.I.E.E.).OXOXK. . .X...Y  .u .   ",
"    k I.S.P.P.S.L.M.F.R.R.e.o.o.o.*.F F F H 1.1.>.;.*.;.;.>.,.5.t.i.C..X<X<X*X^.N.V.V.M.M.n.M.M.L.L.R.E.).E.1X*X..j.Y C D u .   ",
"    f M.V.V.V.M.V.V.V.I.P.I.O.#.o.@.*.Z @.-.<.<.:.:.;.=.;.;.;.,.5.i.Q.oX<X:X%XF.V.V.V.m.c.n.n.M.L.L.E.E.E.).5XwX@X.. .C +.t     ",
"    f k.k.x.k.x.c.M.M.M.V.L.r.o.$.#.&.F @.G :.1.;.:.=.*.*.=.;.>.,.i.D.+X*X>X}.V.S.V.M.n.n.c.c.n.c.L.E.R.R.=XwXwXqX0.N N +.t     ",
"    h M.M.c.x.x.k.k.x.k.x.M.M.w.O.#.$.O.@.@.:.1.<.:.:.*.&.O.*.*.:.s.Q.oXXX,XF.V.V.M.M.n.n.z.n.V.P.^.}.P.E.1X5XwX8X1XA N N u .   ",
"    h V.L.V.V.L.M.M.n.x.k.d.s.k.s.3.*.O.+.@.G <.1.1.>.:.=.*.=.>.f.Q.XX+X&X|.M.N.n.z.n.x.l.l.z.M.V.(.%XW.OXXX=X<X6XqXXXD A r     ",
"    f s.k.c.M.M.N.M.M.M.M.c.c.x.k.k.x.x.k.3.F *.>.1.1.1.1.3.u.b.T.XX&XoX&XG.l.x.l.p.s.k.l.n.V.R./.!.!.M.w.n.Q..X>X4X8XK.Z x .   ",
"    d e.e.e.r.r.r.r.s.s.k.s.k.x.x.x.d.x.x.z.<.F :.>.1.1.4.9.p.m.!..X&XoX}.z.l.s.s.l.k.n.V.W. X*X4X&Xp.6.2.u.S.[.&X2XqX9X'.z .   ",
"    d s.s.s.s.r.r.e.e.e.r.e.e.r.s.s.k.x.x.M.c.*.F 2.1.4.5.8.u.b.J.[..X}.x.k.k.s.l.n.V.V.R.(.%X6X8X4XA.h.w.u.v.J.|.>X4XqX<Xz .   ",
"    e w.e.e.s.r.s.s.s.s.s.s.s.s.x.x.c.c.c.M.I.e.B :.4.1.1.4.9.s.b.D.K.z.e.p.p.k.l.x.x.m.U.}.*X8X7XqXQ.b.i.0.a.Z.].&X2X3X*X..    ",
"    o > , < < < 1 1 1 1 1 1 1 1 < 1 2 1 2 2 2 2 , ; : > > , , , , 1 < < < < < < < 1 2 2 8 0 s 0 0 s 8 2 1 < 1 1 8 8 0 s a =     ",
"                                                                                            .                     .             "
};
