/* XPM */
static char *c644ba2e00174defc06cddf325325d6f4AFbkThs6tOY2qP4[] = {
/* columns rows colors chars-per-pixel */
"32 64 14 1 ",
"  c None",
". c black",
"X c #7A4D03",
"o c #565656",
"O c #810808",
"+ c #AB0B0B",
"@ c #CC2828",
"# c #A77023",
"$ c #B47926",
"% c #349F00",
"& c #D29033",
"* c #E0AC69",
"= c #8B00EC",
"- c #AFAFAF",
/* pixels */
"                                ",
"                                ",
"                                ",
"                                ",
"                                ",
"                                ",
"                .               ",
"                 . .            ",
"                 ..             ",
"              .......           ",
"            .....*....          ",
"           ....&***....         ",
"            ..$***.....         ",
"            #%*****%.*..        ",
"            *%*****%**          ",
"            +********.          ",
"             +++*+++            ",
"               o-o+O            ",
"               -@-++O           ",
"               @=@++O           ",
"               =o=+OO           ",
"              +..+OOO           ",
"               ...              ",
"                ...             ",
"               XXXX             ",
"                                ",
"                                ",
"                                ",
"                                ",
"                                ",
"                                ",
"                                ",
"                                ",
"                                ",
"                                ",
"                                ",
"                                ",
"                                ",
"               .                ",
"            . .                 ",
"             ..                 ",
"           .......              ",
"          ....*.....            ",
"         ....***&....           ",
"         .....***$..            ",
"        ..*.%*****%#            ",
"          **%*****%*            ",
"          .********+            ",
"            +++*+++             ",
"            O+o-o               ",
"           O++-@-               ",
"           O++@=@               ",
"           OO+=o=               ",
"           OOO+..+              ",
"              ...               ",
"             ...                ",
"             XXXX               ",
"                                ",
"                                ",
"                                ",
"                                ",
"                                ",
"                                ",
"                                "
};
