/* XPM */
static char *result[] = {
/* columns rows colors chars-per-pixel */
"64 64 3 1 ",
"  c black",
". c #006515",
"X c #BB4200",
/* pixels */
"                    ........                                    ",
"                    ........                                    ",
"  XXXXXXXXXXXX  XXXXXX....XX  XXXXXXXXXXXX  XXXXXXXX  XX  XXXX  ",
"  XXXXXXXXXXXX  XXXXXX....XX  XXXXXXXXXXXX  XXXXXXXX  XX  XXXX  ",
"  XXXXXXXXXXXX  XXXXXX..XXXX  XXXXXXXXXXXX  XXXXXX  XXXX  XXXX  ",
"  XXXXXXXXXXXX  XXXXXX..XXXX  XXXXXXXXXXXX  XXXXXX  XXXX  XXXX  ",
"  XXXXXXXXXXXX  XXXXXXXXXXXX  XXXXXXXXXXXX  XXXX    XXXX  XXXX  ",
"  XXXXXXXXXXXX  XXXXXXXXXXXX  XXXXXXXXXXXX  XXXX    XXXX  XXXX  ",
"                                                                ",
"                                                                ",
"  XXXXXX  XXXXXXXXXXXX  XXXXXXXXXXXX  XXXXXXXX  XX  XX  XXXXXX  ",
"  XXXXXX  XXXXXXXXXXXX  XXXXXXXXXXXX  XXXXXXXX  XX  XX  XXXXXX  ",
"  XXXXXX  XXXXXXXXXXXX  XXXXXXXXXXXX  XXXXXXXXXXXX  XXXX  XXXX  ",
"  XXXXXX  XXXXXXXXXXXX  XXXXXXXXXXXX  XXXXXXXXXXXX  XXXX  XXXX  ",
"  XXXX..  ..XXXX  XXXX  XXXXXXXXXXXX  XXXXXXXXXXXX  XXXXXXXXXX  ",
"  XXXX..  ..XXXX  XXXX  XXXXXXXXXXXX  XXXXXXXXXXXX  XXXXXXXXXX  ",
"      ....                                                      ",
"  XX..  XXXXXXXX  XX  XXXX  XXXXXX  XXXXXXXXXXXX  XXXXXXXXXXXX  ",
"  XX..  XXXXXXXX  XX  XXXX  XXXXXX  XXXXXXXXXXXX  XXXXXXXXXXXX  ",
"  XXXX  XXXXXXXXXX    XX  XX  XXXX  XXXXXXXXXXXX  XXXXXXXXXXXX  ",
"  XXXX  XXXXXXXXXX    XX  XX  XXXX  XXXXXXXXXXXX  XXXXXXXXXXXX  ",
"  XXXX  XXXXXXXXXXXX    XXXXXXXXXX  XXXXXXXXXXXX  XXXXXXXXXXXX  ",
"  XXXX  XXXXXXXXXXXX    XXXXXXXXXX  XXXXXXXXXXXX  XXXXXXXXXXXX  ",
"                                                                ",
"                                                                ",
"  XXXXXXXX  XXXXXXXX  XX  XXXXXXXXXXXX  XXXXXXXX  XX  XXXXXXXX  ",
"  XXXXXXXX  XXXXXXXX  XX  XXXXXXXXXXXX  XXXXXXXX  XX  XXXXXXXX  ",
"  XXXXXXXX  XXXXXX  XXXX  XXXXXX..XXXX  XXXXXXXX  XX  XXXXXXXX  ",
"  XXXXXXXX  XXXXXX  XXXX  XXXXXX..XXXX  XXXXXXXX  XX  XXXXXXXX  ",
"  XXXXXXXX  XXXXXXXXXXXX  XXXXXXXX..XX  XXXXXX  XXXX  XXXXXXXX  ",
"  XXXXXXXX  XXXXXXXXXXXX  XXXXXXXX..XX  XXXXXX  XXXX  XXXXXXXX  ",
"                                ..                      ..      ",
"                                ..                      ..      ",
"  XXXXXXXXXX  XXXXXXXXXXXX  XXXXXX....XX  XX  XX  XXXX......XX  ",
"  XXXXXXXXXX  XXXXXXXXXXXX  XXXXXX....XX  XX  XX  XXXX......XX  ",
"  XXXXXXXXXX  XXXXXXXXXXXX  XX......XX..  XXXXXXXX  XX  XX....  ",
"  XXXXXXXXXX  XXXXXXXXXXXX  XX......XX..  XXXXXXXX  XX  XX....  ",
"  XXXXXXXXXX  XXXXXXXXXXXX  XXXXXXXXXXXX  XXXXXXXXXXXX  XXXX..  ",
"  XXXXXXXXXX  XXXXXXXXXXXX  XXXXXXXXXXXX  XXXXXXXXXXXX  XXXX..  ",
"                                                                ",
"                                                                ",
"  XXXXXX  XXXXXXXXXXXX  XXXXXXXXXXXX  XXXXXXXXXXXX  XXXXXXXXXX  ",
"  XXXXXX  XXXXXXXXXXXX  XXXXXXXXXXXX  XXXXXXXXXXXX  XXXXXXXXXX  ",
"  XXXXXX  XXXXXXXXXX    XXXXXXXXXXXX  XXXXXXXXXXXX  XXXXXX  XX  ",
"  XXXXXX  XXXXXXXXXX    XXXXXXXXXXXX  XXXXXXXXXXXX  XXXXXX  XX  ",
"  XXXXXX  XXXXXXXXXXXX    XXXXXXXXXX  XXXXXXXXXXXX  XXXX  XXXX  ",
"  XXXXXX  XXXXXXXXXXXX    XXXXXXXXXX  XXXXXXXXXXXX  XXXX  XXXX  ",
"                                                                ",
"  XXXX  XXXXXXXXXX    XX  XXXXXXXX  XXXXXXXXXXXX  XX  XXXXXXXX  ",
"  XXXX  XXXXXXXXXX    XX  XXXXXXXX  XXXXXXXXXXXX  XX  XXXXXXXX  ",
"  XXXX  XXXXXXXX  XX  XXXX  XXXXXX  XXXXXXXXXXXX  XX  XXXXXXXX  ",
"  XXXX  XXXXXXXX  XX  XXXX  XXXXXX  XXXXXXXXXXXX  XX  XXXXXXXX  ",
"  XXXX  XXXXXXXXXXXX  XXXXXXXXXXXX  XXXXXXXXXXXX    XX  XXXXXX  ",
"  XXXX  XXXXXXXXXXXX  XXXXXXXXXXXX  XXXXXXXXXXXX    XX  XXXXXX  ",
"                                                                ",
"                                                                ",
"  XXXXXXXXXXXX  XXXXXXXXXXXX  XXXXXXXXXXXX  XXXX  ..XXXX    XX  ",
"  XXXXXXXXXXXX  XXXXXXXXXXXX  XXXXXXXXXXXX  XXXX  ..XXXX    XX  ",
"....XXXXXXXXXX  XXXXXXXXXXXX..XXXXXXXXXXXX  XX..  ..XXXX  XX    ",
"....XXXXXXXXXX  XXXXXXXXXXXX..XXXXXXXXXXXX  XX..  ..XXXX  XX    ",
"  ..XXXXXXXXXX  XXXXXXXXXX....XXXXXXXXXXXX  XX  ......XX  XXXX  ",
"  ..XXXXXXXXXX  XXXXXXXXXX....XXXXXXXXXXXX  XX  ......XX  XXXX  ",
"    ..                  ........                    ..          ",
"    ..                  ........                    ..          "
};
